<?xml version="1.0" encoding="UTF-8" standalone="no"?>
<!DOCTYPE svg PUBLIC "-//W3C//DTD SVG 1.1//EN" "http://www.w3.org/Graphics/SVG/1.1/DTD/svg11.dtd">
<svg version="1.1" xmlns="http://www.w3.org/2000/svg" xmlns:xlink="http://www.w3.org/1999/xlink" preserveAspectRatio="xMidYMid meet" viewBox="0 0 640 640" width="360" height="170"><defs><path d="M498.61 318.58C494.33 318.38 488.3 317.43 481.44 315.32C475.81 313.59 469.65 311.07 463.54 307.7C458.29 304.81 453.59 301.57 449.6 298.33C445.62 295.09 442.34 291.84 439.84 288.94C437.33 286.03 435.59 283.46 434.6 281.54C433.61 279.62 433.37 278.34 433.91 277.91C434.45 277.48 435.71 277.94 437.57 279.05C439.42 280.15 441.87 281.91 444.86 284.04C447.85 286.18 451.38 288.69 455.38 291.32C459.38 293.96 463.86 296.71 468.69 299.38C474.32 302.48 479.81 305.11 484.79 307.3C490.86 309.96 496.15 311.98 499.89 313.59C503.63 315.2 505.8 316.43 505.62 317.35C505.43 318.28 502.89 318.78 498.61 318.58Z" id="c2CNHjrLf9"></path><path d="M497.7 321.99C494.12 323.49 489.05 325.37 483.22 327.86C478.45 329.9 473.18 332.37 467.77 335.3C463.11 337.81 458.79 340.42 454.93 342.93C451.06 345.43 447.65 347.82 444.76 349.85C441.87 351.88 439.5 353.55 437.71 354.6C435.93 355.64 434.72 356.06 434.22 355.64C433.73 355.21 433.99 353.96 434.98 352.1C435.98 350.24 437.7 347.76 440.16 344.96C442.62 342.16 445.81 339.05 449.68 335.95C453.55 332.86 458.09 329.78 463.15 327.05C469.03 323.88 474.93 321.52 480.31 319.94C486.86 318.01 492.58 317.2 496.64 317.09C500.69 316.97 503.08 317.51 503.23 318.42C503.37 319.33 501.28 320.49 497.7 321.99Z" id="duwY1cNzK"></path><path d="M439.37 287.39C441.76 290.12 444.43 294.36 446.39 299.8C448 304.27 449.11 309.55 449.31 315.31C449.48 320.25 448.97 325.07 448.02 329.45C447.06 333.84 445.66 337.79 444.16 341.08C442.65 344.36 441.04 346.97 439.63 348.74C438.23 350.5 437.05 351.42 436.27 351.35C435.5 351.28 435.21 350.23 435.24 348.44C435.27 346.64 435.61 344.09 436.02 340.98C436.43 337.87 436.9 334.2 437.22 330.18C437.53 326.15 437.68 321.76 437.53 317.2C437.34 311.91 436.75 306.97 436.01 302.62C435.11 297.31 434 292.87 433.4 289.63C432.81 286.38 432.77 284.31 433.85 283.86C434.92 283.41 436.98 284.66 439.37 287.39Z" id="c1Xvw52dmq"></path><path d="M312.25 309.91C193.26 308.54 128.86 307.84 104.82 311.78C80.8 315.72 102.63 315.77 111.36 316.64C120.1 317.51 447.58 322.71 444.32 318.15C441.05 313.58 431.23 311.29 312.25 309.91Z" id="b1kKwQbcUe"></path></defs><g><g><g><use xlink:href="#c2CNHjrLf9" opacity="1" fill="#3b5e7c" fill-opacity="1"></use><g><use xlink:href="#c2CNHjrLf9" opacity="1" fill-opacity="0" stroke="#000000" stroke-width="1" stroke-opacity="0"></use></g></g><g><use xlink:href="#duwY1cNzK" opacity="1" fill="#3b5e7c" fill-opacity="1"></use><g><use xlink:href="#duwY1cNzK" opacity="1" fill-opacity="0" stroke="#000000" stroke-width="1" stroke-opacity="0"></use></g></g><g><use xlink:href="#c1Xvw52dmq" opacity="1" fill="#3b5e7c" fill-opacity="1"></use><g><use xlink:href="#c1Xvw52dmq" opacity="1" fill-opacity="0" stroke="#000000" stroke-width="1" stroke-opacity="0"></use></g></g><g><use xlink:href="#b1kKwQbcUe" opacity="1" fill="#3b5e7c" fill-opacity="1"></use><g><use xlink:href="#b1kKwQbcUe" opacity="1" fill-opacity="0" stroke="#000000" stroke-width="NaN" stroke-opacity="0"></use></g></g></g></g></svg>