<svg width="120.1" height="35.6" xmlns="http://www.w3.org/2000/svg">
 <defs>
  <linearGradient y2="1.000483" x2="0.5" y1="0" x1="0.5" id="SVGID_1_">
   <stop stop-color="#00B8F1" offset="0"/>
   <stop stop-color="#01B6F0" offset="0.016446"/>
   <stop stop-color="#0D90D9" offset="0.3079"/>
   <stop stop-color="#1775C8" offset="0.5782"/>
   <stop stop-color="#1C65BF" offset="0.8173"/>
   <stop stop-color="#1E5FBB" offset="1"/>
  </linearGradient>
 </defs>
 <g>
  <title>background</title>
  <rect fill="none" id="canvas_background" height="402" width="582" y="-1" x="-1"/>
 </g>
 <g>
  <title>Layer 1</title>
  <g id="svg_1">
   <g id="svg_3">
    <g id="svg_4">
     <g id="svg_5">
      <polyline id="svg_6" points="0,35.6 36.4,35.6 72,0 0,0 0,35.6     " fill="url(#SVGID_1_)" clip-rule="evenodd" fill-rule="evenodd"/>
     </g>
     <path id="svg_7" d="m42.7,6.7l-7.1,0l0,16.9l-6.1,-16.9l-6.1,0l-5.4,14.1c-0.6,-3.6 -4.2,-4.8 -7.1,-5.7c-1.9,-0.6 -3.9,-1.5 -3.9,-2.5c0,-0.8 1.1,-1.6 3.2,-1.5c1.4,0.1 2.7,0.2 5.2,1.4l2.5,-4.3c-2.3,-1.2 -5.4,-1.9 -8,-1.9l0,0c-3,0 -5.5,1 -7.1,2.6c-1.2,1.1 -1.8,2.6 -1.8,4.1c0,2.2 0.8,3.7 2.4,4.9c1.4,1 3.2,1.7 4.8,2.2c2,0.6 3.6,1.1 3.6,2.3c0,0.4 -0.2,0.8 -0.5,1.1c-0.5,0.5 -1.2,0.7 -2.3,0.7c-2,0 -3.5,-0.3 -5.9,-1.7l-2.1,4.5c2.4,1.3 5.2,2.1 8,2.1l0.4,0c2.5,0 4.5,-0.8 6.1,-2c0.1,-0.1 0.2,-0.1 0.3,-0.2l-0.8,1.8l6.4,0l1.1,-3.3c1.1,0.4 2.4,0.6 3.8,0.6c1.3,0 2.6,-0.2 3.7,-0.6l1,3.3l10.5,0l0,-6.8l2.3,0c5.5,0 8.8,-2.8 8.8,-7.5c0.1,-5.3 -3.1,-7.7 -9.9,-7.7zm-16.4,14.4c-0.8,0 -1.6,-0.1 -2.3,-0.4l2.2,-7.1l0,0l2.2,7.1c-0.5,0.3 -1.2,0.4 -2.1,0.4zm16.8,-4.1l-1.6,0l0,-5.7l1.6,0c2.1,0 3.7,0.7 3.7,2.8c0.1,2.3 -1.6,2.9 -3.7,2.9" fill="#FFFFFF" clip-rule="evenodd" fill-rule="evenodd"/>
    </g>
   </g>
   <text font-weight="bold" xml:space="preserve" text-anchor="start" font-family="Helvetica, Arial, sans-serif" font-size="23" id="svg_10" y="27.299949" x="64.3002" stroke-width="0" stroke="#000000" fill="#3b5e7c">ERP</text>
  </g>
 </g>
</svg>