<?xml version="1.0" encoding="UTF-8"?>
<!-- Generator: Adobe Illustrator 17.1.0, SVG Export Plug-In . SVG Version: 6.00 Build 0)  -->
<!DOCTYPE svg PUBLIC "-//W3C//DTD SVG 1.1//EN" "http://www.w3.org/Graphics/SVG/1.1/DTD/svg11.dtd">
<svg version="1.1" id="Layer_1" xmlns="http://www.w3.org/2000/svg" xmlns:xlink="http://www.w3.org/1999/xlink" x="0px" y="0px" viewBox="0 0 200.1 35.6" enable-background="new 0 0 200.1 35.6" xml:space="preserve">
<g>
	<path fill="#3b5e7c" d="M121.2,28.7v-22h4.8v8.5h8.6V6.8h4.8v22h-4.8v-9.4H126v9.4H121.2z M140.1,28.7l7.8-22h4.6l7.8,22h-4.9   l-1.6-4.9h-7.5l-1.7,4.9H140.1z M147.4,20.3h5.2l-2.5-7.5H150L147.4,20.3z M160.8,28.7v-22h4.8l9.2,14h0.1v-14h4.4v22h-4.4   l-9.6-14.1h-0.1v14.1H160.8z M180,28.7l7.8-22h4.6l7.8,22h-4.9l-1.6-4.9h-7.5l-1.7,4.9H180z M187.3,20.3h5.2l-2.5-7.5h-0.1   L187.3,20.3z M65.5,23.9l3.7-2.2c1.2,2.4,3.4,3.8,6,3.8c2.2,0,3.8-0.8,3.8-2.5c0-1.7-1.6-2.4-4.5-3.2c-3.9-1.1-8-2.1-8-6.7   c0-4.1,3.2-6.6,8-6.6c4.5,0,7.2,2.2,8.8,4.5l-3.4,2.6c-1.2-1.9-3.3-3.1-5.4-3.1c-2.1,0-3.2,0.9-3.2,2.2c0,1.8,1.6,2.4,4.5,3.2   c3.9,1,8,2.3,8,6.8c0,3.5-2.7,6.7-8.8,6.7C70.2,29.3,67.2,27,65.5,23.9z M83.6,28.9l11.5-22h4.9l-11.5,22H83.6z M106.7,28.9v-4.3   H96v-3.5l10-14.2h5.3v13.9h3.7v3.8h-3.7v4.3H106.7z M101,20.8h5.7v-8.1h-0.1L101,20.8z"/>
	<g>
		<g>
			<g>
				<linearGradient id="SVGID_1_" gradientUnits="userSpaceOnUse" x1="36" y1="-1.617082e-009" x2="36" y2="35.6172">
					<stop offset="0" style="stop-color:#00B8F1"/>
					<stop offset="1.644576e-002" style="stop-color:#01B6F0"/>
					<stop offset="0.3079" style="stop-color:#0D90D9"/>
					<stop offset="0.5782" style="stop-color:#1775C8"/>
					<stop offset="0.8173" style="stop-color:#1C65BF"/>
					<stop offset="1" style="stop-color:#1E5FBB"/>
				</linearGradient>
				<polyline fill-rule="evenodd" clip-rule="evenodd" fill="url(#SVGID_1_)" points="0,35.6 36.4,35.6 72,0 0,0 0,35.6     "/>
			</g>
			<path fill-rule="evenodd" clip-rule="evenodd" fill="#FFFFFF" d="M42.7,6.7l-7.1,0v16.9L29.5,6.7h-6.1L18,20.8     c-0.6-3.6-4.2-4.8-7.1-5.7C9,14.5,7,13.6,7,12.6c0-0.8,1.1-1.6,3.2-1.5c1.4,0.1,2.7,0.2,5.2,1.4l2.5-4.3c-2.3-1.2-5.4-1.9-8-1.9     h0c-3,0-5.5,1-7.1,2.6C1.6,10,1,11.5,1,13c0,2.2,0.8,3.7,2.4,4.9c1.4,1,3.2,1.7,4.8,2.2c2,0.6,3.6,1.1,3.6,2.3     c0,0.4-0.2,0.8-0.5,1.1c-0.5,0.5-1.2,0.7-2.3,0.7c-2,0-3.5-0.3-5.9-1.7L1,27c2.4,1.3,5.2,2.1,8,2.1l0.4,0c2.5,0,4.5-0.8,6.1-2     c0.1-0.1,0.2-0.1,0.3-0.2L15,28.7h6.4l1.1-3.3c1.1,0.4,2.4,0.6,3.8,0.6c1.3,0,2.6-0.2,3.7-0.6l1,3.3h10.5v-6.8h2.3     c5.5,0,8.8-2.8,8.8-7.5C52.7,9.1,49.5,6.7,42.7,6.7z M26.3,21.1c-0.8,0-1.6-0.1-2.3-0.4l2.2-7.1h0l2.2,7.1     C27.9,21,27.2,21.1,26.3,21.1z M43.1,17h-1.6v-5.7h1.6c2.1,0,3.7,0.7,3.7,2.8C46.9,16.4,45.2,17,43.1,17"/>
		</g>
	</g>
</g>
</svg>